<svg version="1.2" xmlns="http://www.w3.org/2000/svg" viewBox="0 0 1080 1080" width="1080" height="1080">
	<style>
		.s0 { fill: #148563 } 
		.s1 { fill: #0bd698 } 
		.s2 { fill: #ffffff } 
	</style>
	<path id="Layer 2" class="s0" d="m166 107h748c55.23 0 100 44.77 100 100v748c0 55.23-44.77 100-100 100h-748c-55.23 0-100-44.77-100-100v-748c0-55.23 44.77-100 100-100zm0 0h748c55.23 0 100 44.77 100 100v748c0 55.23-44.77 100-100 100h-748c-55.23 0-100-44.77-100-100v-748c0-55.23 44.77-100 100-100z"/>
	<path id="Layer 2 copy" class="s1" d="m166 24h748c55.23 0 100 44.77 100 100v748c0 55.23-44.77 100-100 100h-748c-55.23 0-100-44.77-100-100v-748c0-55.23 44.77-100 100-100zm0 0h748c55.23 0 100 44.77 100 100v748c0 55.23-44.77 100-100 100h-748c-55.23 0-100-44.77-100-100v-748c0-55.23 44.77-100 100-100z"/>
	<path id="S" class="s2" aria-label="S"  d="m786.2 311.9l-128.7 43q-26-76.7-110.3-76.7-90 0-90 58.3 0 23.2 16.6 39.3 17.1 16.1 76.2 27.9 99 19.9 144.9 40.2 45.9 20.4 77.1 65.8 31.8 45 31.8 100.9 0 87.5-67.7 151.4-67.3 63.9-199.8 63.9-99.4 0-169.5-44.9-69.6-45.5-91.8-134.5l140.1-31.7q23.7 90.4 131.6 90.4 52.1 0 77.7-19.9 25.5-20.3 25.5-48.2 0-28.4-23.2-44.1-23.2-15.6-89.5-29.3-123.5-25.6-176-69.6-52.6-44.5-52.6-129.7 0-86.2 62.5-145.3 63-59.2 170.4-59.2 190.3 0 244.7 152z"/>
</svg>