<svg version="1.2" xmlns="http://www.w3.org/2000/svg" viewBox="0 0 1080 1080" width="1080" height="1080">
	<style>
		.s0 { fill: #148563 } 
		.s1 { fill: #0bd698 } 
		.s2 { fill: #ffffff } 
	</style>
	<path id="Layer 2" class="s0" d="m166 107h748c55.23 0 100 44.77 100 100v748c0 55.23-44.77 100-100 100h-748c-55.23 0-100-44.77-100-100v-748c0-55.23 44.77-100 100-100zm0 0h748c55.23 0 100 44.77 100 100v748c0 55.23-44.77 100-100 100h-748c-55.23 0-100-44.77-100-100v-748c0-55.23 44.77-100 100-100z"/>
	<path id="Layer 2 copy" class="s1" d="m166 24h748c55.23 0 100 44.77 100 100v748c0 55.23-44.77 100-100 100h-748c-55.23 0-100-44.77-100-100v-748c0-55.23 44.77-100 100-100zm0 0h748c55.23 0 100 44.77 100 100v748c0 55.23-44.77 100-100 100h-748c-55.23 0-100-44.77-100-100v-748c0-55.23 44.77-100 100-100z"/>
	<path id="C" class="s2" aria-label="C"  d="m815 415.3l-158.5 10q-3.4-136.8-106.6-136.8-118.3 0-118.3 210.6 0 121.7 32.2 165.2 32.2 43.1 89.9 43.1 93.8 0 114.6-122.1l146.7 9q-14.2 115.9-86.6 176.5-71.9 60.1-176.6 60.1-128.2 0-208.7-88.5-80-88.5-80-244.7 0-146.3 77.6-239.5 77.7-93.3 212.1-93.3 232.9 0 262.2 250.4z"/>
</svg>